<svg version="1.1" xmlns="http://www.w3.org/2000/svg" xmlns:xlink="http://www.w3.org/1999/xlink" width="32" height="32"><defs><clipPath id="clip-1"><rect x="0" y="0" width="32" height="32" fill="none" stroke="none"/></clipPath></defs><g data-paper-data="{&quot;isDefaultLayer&quot;:true}" id="Default layer" fill="none" fill-rule="nonzero" stroke="none" stroke-width="1" stroke-linecap="butt" stroke-linejoin="miter" stroke-miterlimit="10" stroke-dasharray="" stroke-dashoffset="0" font-family="none" font-weight="none" font-size="none" text-anchor="none" style="mix-blend-mode: normal"><path d="M413.81904,46.52481c1.32864,-7.19045 -24.09297,-1.37453 -23.75364,-5.46364c0.33934,-4.08911 13.17878,3.24896 13.6522,-0.82681c0.47342,-4.07576 -14.73021,-0.3372 -14.28286,-4.28964c0.44735,-3.95244 12.78017,1.57828 13.22975,-0.87917c0.44958,-2.45746 -8.08925,-1.01335 -7.57547,-3.45819c0.51378,-2.44484 17.69691,5.19492 18.26318,-0.25523c0.56627,-5.45015 -25.8379,1.35615 -25.0061,-5.61889c0.8318,-6.97504 22.64769,5.91903 23.41175,0.38299c0.76406,-5.53604 -18.77599,0.78414 -18.0121,-4.75192c0.76389,-5.53606 22.58275,7.35436 23.39879,0.38138c0.81604,-6.97298 -27.19096,2.21604 -26.18691,-5.76527c1.00406,-7.9813 27.2727,9.28298 27.87844,0.93668c0.60574,-8.3463 -17.34169,-6.24558 -32.39719,-3.62118c-15.0555,2.62441 -25.1972,12.95732 -26.37027,16.79269c-1.17307,3.83537 6.6225,1.1732 6.77158,-1.69672c0.14908,-2.86992 -7.34834,-5.94761 -12.88638,-9.94006c-5.53805,-3.99245 -9.11673,-8.89968 -13.26415,-13.79836c-4.14742,-4.89868 -8.86356,-9.7888 -13.11547,-14.72043c-4.25191,-4.93163 -8.03959,-9.90477 -12.33334,-14.81163c-4.29376,-4.90686 -9.09359,-9.74744 -12.58813,-15.72387c-3.49453,-5.97643 -5.68376,-13.08872 -15.16983,-16.15865c-9.48607,-3.06993 -26.26898,-2.09749 -35.34052,1.61217c-9.07154,3.70966 -10.43171,10.15655 -13.44434,14.86527c-3.01263,4.70872 -7.67772,7.67927 -11.95622,9.98281c-4.2785,2.30354 -8.17043,3.94006 -12.9318,4.86199c-4.76138,0.92193 -10.39221,1.12925 -16.93672,1.1372c-6.54451,0.00795 -14.00269,-0.18348 -19.99054,-0.61519c-5.98785,-0.43171 -10.50536,-1.10371 -16.88205,-2.15852c-6.37669,-1.05481 -14.61254,-2.49242 -21.50132,-3.52875c-6.88878,-1.03633 -12.43047,-1.67138 -18.30917,-2.77441c-5.87871,-1.10303 -12.09443,-2.67403 -18.599,-4.33183c-6.50457,-1.65779 -13.29799,-3.40237 -19.05701,-5.20779c-5.75902,-1.80542 -10.48364,-3.67169 -15.2074,-6.24174c-4.72377,-2.57005 -9.44669,-5.84387 -14.83353,-9.68546c-5.38684,-3.84159 -11.4376,-8.25095 -17.55551,-12.1794c-6.11791,-3.92845 -12.30299,-7.37599 -17.92904,-10.57338c-5.62605,-3.19739 -10.69308,-6.14463 -15.98005,-9.74509c-5.28698,-3.60046 -10.7939,-7.85414 -19.16011,-10.94878c-8.36621,-3.09464 -19.59169,-5.03024 -29.2692,-2.47431c-9.67751,2.55593 -17.80703,9.60339 -23.46168,16.06924c-5.65464,6.46584 -8.83439,12.35007 -12.11237,17.85663c-3.27798,5.50657 -6.65419,10.63547 -10.33824,15.86116c-3.68405,5.22569 -7.67595,10.54816 -11.39162,14.75599c-3.71567,4.20784 -7.1551,7.30104 -11.51701,10.0858c-4.36191,2.78476 -9.6463,5.26107 -14.43495,6.79887c-4.78865,1.5378 -9.08157,2.1371 -14.93555,2.33763c-5.85398,0.20053 -13.26901,0.00231 -19.23768,-0.48292c-5.96866,-0.48523 -10.49095,-1.25746 -16.41806,-2.62939c-5.92711,-1.37193 -13.25904,-3.34357 -20.10667,-4.99295c-6.84763,-1.64938 -13.21095,-2.97652 -20.40578,-3.98161c-7.19483,-1.0051 -15.22117,-1.68817 -22.48336,-1.76508c-7.26219,-0.07691 -13.76023,0.45232 -20.12309,0.27346c-6.36286,-0.17886 -12.59055,-1.06583 -21.051,1.14377c-8.46045,2.2096 -19.15367,7.51576 -26.03688,11.27239c-6.88321,3.75663 -9.95641,5.96373 -15.52656,17.11966c-5.57015,11.15593 -19.29039,30.28308 -14.1944,32.56269c5.09599,2.27961 3.16516,-18.25544 7.76072,-16.91321c4.59556,1.34222 -6.77848,14.41547 -2.19746,15.80653c4.58102,1.39106 2.60958,-15.79829 7.01857,-14.47473c4.409,1.32356 -6.44507,13.95545 -2.01637,15.21153c4.42869,1.25608 3.33025,-19.63568 8.16112,-18.22882c4.83087,1.40685 -6.37957,15.32369 -2.43708,16.59384c3.94249,1.27015 2.4219,-13.59049 6.34525,-12.26238c3.92335,1.32811 -7.85067,19.14171 -3.63779,20.53905c4.21287,1.39733 2.41005,-14.57524 6.63754,-13.22276c4.22749,1.35248 -7.85351,16.11954 -2.72182,17.52941c5.13169,1.40987 4.5583,-28.55593 10.76018,-26.76859c6.20188,1.78734 -10.00785,19.30186 -3.83002,21.17066c6.17782,1.8688 4.30856,-11.58994 8.61303,-19.8972c4.30447,-8.30726 8.37337,-10.55522 11.18949,-12.33758c2.81612,-1.78236 4.37945,-3.09911 8.83278,-3.82406c4.45333,-0.72495 11.79666,-0.85809 18.86346,-1.02492c7.0668,-0.16683 13.85706,-0.36733 19.87287,-0.27006c6.01581,0.09727 11.25717,0.49233 17.24046,1.35348c5.9833,0.86115 12.70854,2.18839 18.83996,3.67609c6.13143,1.4877 11.66904,3.13585 18.70302,4.6444c7.03397,1.50854 15.5643,2.87748 22.8455,3.65876c7.2812,0.78128 13.31328,0.97492 20.73723,0.52057c7.42395,-0.45435 16.23979,-1.5567 24.10743,-3.77317c7.86764,-2.21647 14.7871,-5.54707 21.44869,-10.10234c6.66159,-4.55527 13.06531,-10.33523 18.23956,-15.97293c5.17424,-5.6377 9.11901,-11.13316 13.02751,-16.87502c3.9085,-5.74186 7.78072,-11.73014 11.49008,-17.62834c3.70936,-5.8982 7.25585,-11.70633 10.30962,-15.19893c3.05377,-3.4926 5.61482,-4.66966 7.85725,-5.38154c2.24243,-0.71188 4.16626,-0.95858 7.97475,0.67416c3.8085,1.63273 9.50167,5.1449 15.48288,8.84747c5.9812,3.70257 12.25042,7.59555 18.14032,11.06248c5.8899,3.46693 11.40046,6.50781 16.51279,9.73817c5.11233,3.23036 9.82643,6.6502 15.27455,10.59695c5.44812,3.94675 11.63026,8.42042 18.5665,12.12288c6.93624,3.70246 14.62658,6.63373 21.55424,8.84674c6.92766,2.21301 13.09265,3.70778 19.52691,5.3362c6.43426,1.62842 13.13779,3.39051 20.34102,4.73755c7.20323,1.34705 14.90615,2.27906 21.19261,3.21134c6.28647,0.93227 11.15648,1.8648 17.89744,2.93729c6.74097,1.07248 15.35289,2.28491 22.61072,2.89098c7.25783,0.60607 13.16155,0.60577 19.99054,0.61519c6.82898,0.00943 14.58322,0.02858 22.78268,-1.52972c8.19945,-1.5583 16.84411,-4.69404 23.80145,-8.94867c6.95734,-4.25463 12.22737,-9.62814 18.44225,-15.3983c6.21488,-5.77017 13.37462,-11.937 13.38647,-14.80128c0.01185,-2.86428 -7.1242,-2.42602 -7.1741,0.32727c-0.04989,2.75329 6.98637,7.8216 12.13312,12.924c5.14675,5.1024 8.40398,10.23888 12.41033,15.50178c4.00635,5.2629 8.76183,10.65223 13.2548,15.91825c4.49297,5.26602 8.72344,10.40873 13.49261,15.14371c4.76917,4.73499 10.07705,9.06225 14.44521,15.02699c4.36816,5.96474 7.79661,13.56697 18.55932,14.31595c10.76271,0.74898 28.85968,-5.35529 34.27755,-8.58876c5.41787,-3.23347 -1.84336,-3.59615 3.84255,-2.44695c5.68591,1.1492 22.88562,10.58683 24.21426,3.39639z" data-paper-data="{&quot;origPos&quot;:null}" fill="none" stroke="#000000"/><path d="M250.06906,47.03753c-2.09773,-2.80668 -8.52339,7.35042 -10.0332,5.97967c-1.50981,-1.37076 4.45221,-4.82291 2.90142,-6.14712c-1.55079,-1.32421 -10.0722,12.68048 -13.39078,9.12755c-3.31858,-3.55293 12.56016,-10.43356 10.26437,-13.05022c-2.29579,-2.61667 -7.70365,8.56309 -9.97604,5.92608c-2.27239,-2.63701 15.38964,-10.78852 11.88734,-14.57183c-3.5023,-3.78332 -10.95459,13.11165 -14.11344,9.80508c-3.15885,-3.30657 12.49541,-8.87691 9.25969,-12.10829c-3.23572,-3.23138 -15.74756,19.91978 -20.07816,15.39728c-4.3306,-4.5225 15.99471,-13.03026 13.40693,-15.99652c-2.58777,-2.96625 -8.45323,9.89376 -11.10683,6.98625c-2.6536,-2.90751 12.65265,-9.04982 9.2502,-12.09939c-3.40244,-3.04958 -12.94606,12.52083 -18.49847,17.6525c-5.55241,5.13167 -4.50295,3.18906 -9.46226,2.58867c-4.9593,-0.60039 -15.92736,0.14142 -21.81718,0.36194c-5.88982,0.22052 -6.70141,-0.08026 -10.28888,-2.22676c-3.58747,-2.1465 -9.95082,-6.13872 -19.3544,-9.42251c-9.40358,-3.28379 -21.84739,-5.85915 -30.26833,0.2152c-8.42093,6.07435 -12.81899,20.79841 -15.04716,31.2559c-2.22818,10.45749 -2.28648,16.64842 2.94347,17.06178c5.22996,0.41336 15.74817,-4.95086 16.40405,-9.30637c0.65587,-4.35551 -8.55059,-7.70233 -15.16033,-11.58956c-6.60973,-3.88723 -10.62274,-8.31488 -15.19904,-12.58916c-4.5763,-4.27428 -9.7159,-8.39518 -15.22098,-12.88464c-5.50508,-4.48945 -11.37564,-9.34746 -16.51512,-13.05469c-5.13948,-3.70724 -9.54787,-6.26371 -16.69397,-11.855c-7.14609,-5.59129 -17.02988,-14.21741 -27.32511,-7.88107c-10.29523,6.33634 -20.63349,31.64202 -24.39249,29.90361c-3.759,-1.7384 -1.6401,-13.68492 2.5,-13.5768c4.1401,0.10812 -3.29068,19.18837 2.5,19.14035c5.79068,-0.04802 -1.43384,-21.81776 2.5,-21.97202c3.93384,-0.15426 -1.43672,12.91607 2.5,12.88254c3.93672,-0.03354 -1.81638,-14.19185 2.5,-14.16929c4.31638,0.02256 -0.06204,14.91993 2.5,15.08956c2.56204,0.16964 0.06823,-8.16477 2.5,-8.18556c2.43177,-0.02079 1.09488,7.53819 2.5,7.71104c1.40512,0.17286 1.08572,-4.06612 2.5,-4.00243c1.41428,0.06369 0.83975,5.00782 2.5,4.94216c1.66025,-0.06566 0.82192,-6.03279 2.5,-6.09468c1.67808,-0.0619 2.88086,3.40067 2.5,5.0081c-0.38086,1.60743 -4.57482,2.95356 -4.40847,3.29944c0.16635,0.34588 4.23481,0.27436 9.14781,2.6384c4.913,2.36404 10.67054,7.16366 15.91511,11.30191c5.24458,4.13825 9.97619,7.61514 14.84524,11.7347c4.86904,4.11956 9.87552,8.88179 15.30912,12.95925c5.43361,4.07747 11.29436,7.47017 15.60495,12.92537c4.31059,5.45519 7.07103,12.97287 16.6031,12.69251c9.53207,-0.28036 25.83576,-8.35876 30.98105,-17.57622c5.14529,-9.21746 -0.86783,-19.57398 -3.83102,-22.20643c-2.96319,-2.63245 -2.87645,2.45916 -1.85096,3.8448c1.0255,1.38564 2.98976,-0.9347 6.44128,-0.0458c3.45152,0.8889 8.3903,4.98705 16.56177,8.06294c8.17147,3.07589 19.57564,5.12953 27.1543,5.87683c7.57866,0.7473 11.33182,0.18826 18.10049,-0.30028c6.76867,-0.48854 16.55284,-0.90659 27.25194,-7.45555c10.69909,-6.54896 25.89666,-19.19656 23.79894,-22.00324z" data-paper-data="{&quot;origPos&quot;:null}" fill="none" stroke="#000000"/><path d="M552.51441,3.41474c1.22632,-3.84824 -12.78892,-2.74356 -12.41881,-5.19866c0.37011,-2.45509 7.75168,1.00221 8.23705,-0.80316c0.48537,-1.80537 -5.61084,-1.84599 -5.06277,-3.63332c0.54807,-1.78733 10.11713,2.85866 10.64109,-0.29159c0.52396,-3.15025 -17.08501,-0.96941 -15.95394,-5.95092c1.13107,-4.98151 19.50794,7.99224 20.77321,1.86449c1.26527,-6.12775 -22.78896,-2.95278 -22.02083,-7.24193c0.76812,-4.28916 13.73205,3.78412 14.51488,0.53274c0.78283,-3.25138 -10.85719,-1.44767 -10.10545,-4.70638c0.75174,-3.25871 12.3233,4.08275 13.09368,0.23031c0.77038,-3.85244 -14.89463,-1.12559 -13.9433,-5.52306c0.95133,-4.39747 15.0372,5.41707 15.60438,0.76458c0.56718,-4.65249 -11.80843,-1.70496 -18.62615,-3.65297c-6.81771,-1.94801 -7.77003,-4.13188 -9.80874,-7.46298c-2.03871,-3.3311 -5.16383,-7.80943 -8.78579,-13.84637c-3.62196,-6.03695 -7.74075,-13.63252 -10.75157,-19.05672c-3.01082,-5.42421 -4.91365,-8.67705 -9.59831,-16.12068c-4.68466,-7.44364 -12.15114,-19.07807 -23.15154,-18.91253c-11.0004,0.16554 -25.53471,12.13105 -31.0156,17.20232c-5.48089,5.07127 -1.90836,3.24829 -2.78049,3.07356c-0.87212,-0.17472 -6.1889,1.2988 -11.19189,1.02826c-5.003,-0.27055 -9.69222,-2.28516 -15.18191,-4.85452c-5.48969,-2.56935 -11.77985,-5.69344 -18.99656,-8.35356c-7.21671,-2.66012 -15.35998,-4.85627 -23.06695,-6.00629c-7.70697,-1.15001 -14.97765,-1.25389 -22.37207,-0.86183c-7.39442,0.39206 -14.91258,1.28007 -22.66332,3.27671c-7.75074,1.99664 -15.73405,5.10191 -22.82161,10.2711c-7.08757,5.16919 -13.27939,12.40229 -17.76603,18.56064c-4.48664,6.15836 -7.26808,11.24197 -10.59558,16.96272c-3.3275,5.72075 -7.20104,12.07864 -10.42163,18.98238c-3.22059,6.90374 -5.78822,14.35333 -7.61481,21.93534c-1.82659,7.58201 -2.91214,15.29645 -2.87379,22.60008c0.03835,7.30362 1.2006,14.19643 -0.24214,20.5576c-1.44275,6.36117 -5.49049,12.19071 3.0037,23.2899c8.4942,11.09919 35.72604,26.16126 32.30471,30.40606c-3.42133,4.24481 -15.64872,-8.40281 -14.98204,-10.28611c0.66668,-1.88329 5.96275,2.40425 6.6387,0.52427c0.67595,-1.87999 -16.29437,-5.25252 -13.89464,-9.7424c2.39973,-4.48988 21.52858,16.54275 24.97343,9.69163c3.44485,-6.85112 -24.48291,-7.78705 -21.6352,-13.61269c2.84771,-5.82563 18.79661,9.95681 20.32103,7.36543c1.52442,-2.59138 -7.67666,-5.65017 -7.56227,-6.57622c0.11438,-0.92605 2.61811,-0.48842 2.77307,-1.40855c0.15496,-0.92013 -6.31329,-3.44089 -5.203,-5.39658c1.11029,-1.9557 9.47064,4.09308 10.47337,2.4416c1.00272,-1.65148 -5.20511,-3.24613 -4.19053,-4.89035c1.01458,-1.64423 9.66357,5.87352 11.10688,2.75835c1.44331,-3.11517 -8.32909,-4.09597 -12.05279,-8.68348c-3.72371,-4.58751 -2.50088,-9.91001 -2.07514,-16.09009c0.42573,-6.18008 0.05437,-13.21774 0.22889,-19.43259c0.17452,-6.21485 0.89493,-11.60689 2.14871,-16.8979c1.25378,-5.29101 3.04093,-10.48099 5.4214,-15.61697c2.38047,-5.13598 5.35426,-10.21796 8.79818,-16.02535c3.44392,-5.80739 7.35797,-12.34019 10.59558,-16.96272c3.23761,-4.62252 5.7988,-7.33476 9.31273,-9.72925c3.51393,-2.39449 7.98061,-4.47124 13.07047,-5.8825c5.08986,-1.41126 10.80289,-2.15702 16.72671,-2.41838c5.92382,-0.26136 12.05843,-0.03832 17.46414,0.67276c5.40571,0.71109 10.08254,1.91023 15.29389,3.9823c5.21135,2.07207 10.95724,5.01708 17.60783,7.74288c6.65059,2.7258 14.20589,5.2324 22.59579,7.22516c8.3899,1.99275 17.61441,3.47166 27.18656,-2.49777c9.57215,-5.96943 19.49194,-19.38719 21.11035,-23.33548c1.6184,-3.94829 -5.06458,1.57289 -6.6906,3.71084c-1.62602,2.13795 1.80492,0.89267 5.50552,4.49747c3.7006,3.6048 7.67086,12.05967 10.84827,18.22002c3.17741,6.16035 5.56197,10.02619 8.86317,15.70961c3.30119,5.68342 7.51902,13.18443 12.50124,19.70192c4.98222,6.51749 10.72885,12.05148 21.11885,16.06827c10.39,4.0168 26.03404,9.95976 27.26035,6.11152z" fill="none" stroke="#000000"/><path d="M635.35684,-60.4319c-4.23053,-3.33066 -8.65266,15.44773 -11.87155,13.4605c-3.21889,-1.98723 7.83958,-9.63012 4.71726,-11.69408c-3.12233,-2.06395 -5.71294,10.92001 -8.81628,8.82761c-3.10334,-2.0924 8.90306,-10.48615 5.42086,-12.76099c-3.48219,-2.27484 -7.7123,11.90247 -9.97973,10.59182c-2.26743,-1.31065 4.77665,-7.03351 2.51784,-8.35897c-2.25881,-1.32546 -6.04819,12.00704 -9.4122,9.73125c-3.36401,-2.27579 9.39538,-12.01815 6.32556,-14.13284c-3.06982,-2.11469 -5.69562,10.86629 -8.78791,8.7846c-3.09229,-2.08169 7.87346,-10.82502 5.32555,-12.61647c-2.5479,-1.79145 -5.10814,8.85733 -7.63462,7.0358c-2.52648,-1.82153 10.60093,-12.09363 6.44849,-14.31924c-4.15244,-2.22561 -19.99461,21.77965 -23.11594,36.79747c-3.12132,15.01783 7.05679,25.70247 12.33827,31.09887c5.28147,5.3964 5.6663,5.50454 6.30272,7.88567c0.63641,2.38113 1.52441,7.03524 1.02257,10.97923c-0.50184,3.94399 -2.39351,7.17785 -4.8623,9.5737c-2.46879,2.39586 -5.51469,3.95371 -8.51956,4.65258c-3.00487,0.69887 -5.96869,0.53875 -10.45699,-1.12901c-4.4883,-1.66776 -10.50108,-4.84317 -16.52861,-8.03811c-6.02752,-3.19495 -12.06979,-6.40944 -18.6818,-9.55176c-6.61201,-3.14231 -13.79375,-6.21244 -21.73616,-7.57053c-7.94241,-1.35809 -16.64549,-1.00415 -24.68042,-1.55635c-8.03494,-0.55219 -15.40174,-2.01053 -24.29183,7.4978c-8.89009,9.50833 -16.71761,33.98283 -20.97498,31.63869c-4.25737,-2.34414 1.95454,-16.13413 6.6234,-14.78435c4.66886,1.34978 -8.30591,18.4029 -2.84063,19.9171c5.46528,1.5142 2.64711,-18.64352 7.34216,-17.41979c4.69505,1.22373 -6.43216,14.8046 -1.79235,16.07339c4.63982,1.26879 1.95122,-15.93357 6.57911,-14.62194c4.62789,1.31162 -7.70269,16.83291 -2.36955,18.18982c5.33314,1.35691 4.83108,-23.70115 8.80703,-22.791c3.97596,0.91015 -2.03724,12.97776 -1.10444,13.55106c0.9328,0.5733 2.13444,-2.40151 3.11152,-1.90744c0.97708,0.49407 -1.52864,6.83467 0.6142,7.24939c2.14285,0.41472 2.04199,-12.28541 5.64668,-11.20303c3.60469,1.08238 -6.44237,15.38109 -1.949,16.64779c4.49337,1.2667 2.80561,-9.1333 6.52967,-14.12547c3.72405,-4.99216 8.43231,-4.30524 13.20788,-4.07668c4.77557,0.22856 9.61845,-0.00125 14.67959,0.92569c5.06115,0.92695 10.34056,3.01066 15.83266,5.51439c5.4921,2.50373 11.19687,5.42749 16.91354,8.64767c5.71667,3.22018 11.44522,6.73679 19.39251,9.43088c7.94729,2.69409 18.11332,4.56567 27.62861,2.98297c9.51529,-1.5827 18.37983,-6.61967 24.85483,-13.57337c6.475,-6.9537 10.56045,-15.82412 12.517,-24.64556c1.95655,-8.82144 1.78418,-17.59388 -2.54525,-27.32805c-4.32944,-9.73416 -12.81595,-20.43004 -17.5242,-21.92549c-4.70825,-1.49544 -5.63824,6.20955 0.17043,0.42957c5.80867,-5.77998 23.83688,-24.65415 19.60635,-27.98481z" fill="none" stroke="#000000"/><path d="M-169.57882,47.50043c-0.69311,0.74128 1.9567,2.31547 1.32727,3.11154c-0.62943,0.79606 -13.6103,-6.92338 -14.95416,-2.57404c-1.34386,4.34934 26.1594,6.07622 24.50191,11.20427c-1.65749,5.12805 -16.11817,-7.57879 -17.61905,-3.50463c-1.50088,4.07416 13.69532,3.7814 12.634,7.05992c-1.06132,3.27852 -10.33669,-4.61099 -11.4088,-1.33598c-1.07212,3.27501 13.56185,2.95177 12.13175,6.88453c-1.43011,3.93276 -14.40473,-7.37578 -15.97052,-2.92896c-1.56579,4.44682 15.38768,3.02791 13.82306,7.47515c-1.56462,4.44723 -15.10972,-4.46637 -15.91845,-2.91077c-0.80873,1.5556 4.88847,2.50567 4.16295,4.10178c-0.72551,1.59611 -9.07763,-3.5778 -9.67162,-0.72934c-0.59399,2.84845 22.93381,8.25617 34.44204,12.02478c11.50824,3.76861 15.3231,4.82895 20.55582,6.40604c5.23272,1.57709 11.88328,3.67092 18.83394,5.1323c6.95066,1.46138 14.20141,2.2903 23.10973,3.79925c8.90831,1.50895 19.47419,3.69793 25.48105,-4.29815c6.00686,-7.99609 7.45471,-26.17724 0.53211,-35.36961c-6.92259,-9.19237 -22.21562,-9.39594 -29.90802,-0.53265c-7.69241,8.86329 -7.7842,26.79344 -3.09751,35.62322c4.68669,8.82977 14.15185,8.55916 22.82176,9.19595c8.66991,0.63679 16.54456,2.18097 23.40677,2.28706c6.86222,0.10609 12.712,-1.22592 20.94778,-1.22346c8.23578,0.00246 18.85755,1.33938 24.37088,-7.13941c5.51333,-8.47879 5.91822,-26.77329 1.8819,-35.94723c-4.03632,-9.17394 -12.51386,-9.22731 -19.86663,-10.71468c-7.35276,-1.48737 -13.58075,-4.40874 -21.90454,-6.87073c-8.32379,-2.46199 -18.74338,-4.4646 -27.61602,2.41772c-8.87264,6.88233 -16.19833,22.64959 -10.46453,34.37092c5.7338,11.72133 29.94333,17.20752 27.86157,20.14052c-2.08176,2.93301 -10.80752,-4.30685 -9.83644,-6.85423c0.97108,-2.54737 7.96685,3.58881 9.02215,1.08623c1.0553,-2.50258 -8.27409,-3.25656 -7.04925,-5.68067c1.22485,-2.42411 15.22379,9.4825 17.19052,4.52554c1.96673,-4.95696 -23.64218,-7.97795 -22.11417,-12.0238c1.52801,-4.04585 13.09115,4.95326 14.05506,3.20535c0.96391,-1.74791 -5.65108,-2.93512 -4.7127,-4.69686c0.93838,-1.76174 10.79678,5.86052 12.14161,2.39969c1.34483,-3.46083 -16.25078,-4.62558 -14.52595,-8.82876c1.72483,-4.20318 13.04176,7.70767 14.73627,3.49218c1.69451,-4.21549 -18.52072,-4.38462 -16.22508,-9.54418c2.29563,-5.15956 22.68843,14.91355 25.67603,8.09839c2.9876,-6.81516 -14.09672,-11.41169 -21.51613,-12.34107c-7.41941,-0.92938 -5.77208,7.74264 -3.21229,10.55081c2.5598,2.80817 6.03206,-0.24752 10.57844,-0.92612c4.54638,-0.6786 10.16687,1.01987 16.06274,5.03835c5.89587,4.01848 12.06712,10.35696 15.20182,8.19881c3.1347,-2.15816 3.23285,-12.81295 0.82336,-15.72737c-2.4095,-2.91442 -7.32664,1.91152 -13.2996,3.89609c-5.97296,1.98457 -13.00173,1.12776 -18.96223,1.10749c-5.9605,-0.02027 -10.85274,0.796 -16.1049,-1.5736c-5.25216,-2.3696 -10.86424,-7.92506 -13.78735,-5.55557c-2.92311,2.36949 -3.15725,12.66395 -1.56118,17.95455c1.59607,5.29061 5.02235,5.57736 7.07573,0.12602c2.05338,-5.45135 2.73386,-16.64081 0.30157,-20.0452c-2.43229,-3.4044 -7.97734,0.97627 -13.08651,2.20744c-5.10917,1.23117 -9.78245,-0.68716 -16.08133,-2.64378c-6.29888,-1.95662 -14.22337,-3.95151 -19.75394,-5.383c-5.53057,-1.43148 -8.66722,-2.29955 -17.58118,-5.47902c-8.91397,-3.17947 -27.18837,-10.48027 -27.88148,-9.73899z" fill="none" stroke="#000000"/><g clip-path="url(#clip-1)" id="Layer_1"><path d="M11.671,10.859l-7.046,5.582l10.805,10.806l5.703,-6.927z" fill="#ffffff" stroke="#000000"/><path d="M22.387,11.346c1.937,-1.373 2.828,-1.869 3.301,-2.342c0.996,-0.997 0.996,-2.611 0,-3.607c-0.996,-0.996 -2.61,-0.996 -3.606,0c-0.488,0.487 -1.08,1.482 -2.478,3.494c-0.235,0.34 -0.758,1.248 -1.194,0.873l-3.304,-2.222l-2.938,2.042l10.25,10.25l1.958,-2.884l-2.624,-3.998c-0.356,-0.494 -0.205,-1.011 0.635,-1.606zM23.734,6.275c0.593,0 1.07,0.479 1.07,1.069c0,0.59 -0.479,1.07 -1.07,1.07c-0.59,0 -1.068,-0.479 -1.068,-1.07c0,-0.591 0.479,-1.069 1.068,-1.069z" fill="#000000" stroke="none"/><path d="M6.842,18.539l5.353,-4.539l-4.75,5.146z" fill="#000000" stroke="none"/><path d="M8.775,20.486l5.355,-4.538l-4.748,5.148z" fill="#000000" stroke="none"/><path d="M10.712,22.436l5.352,-4.54l-4.748,5.148z" fill="#000000" stroke="none"/><path d="M12.646,24.383l5.354,-4.537l-4.749,5.146z" fill="#000000" stroke="none"/></g></g></svg>