<?xml version="1.0" encoding="utf-8"?>
<!-- Generator: Adobe Illustrator 21.1.0, SVG Export Plug-In . SVG Version: 6.00 Build 0)  -->
<svg version="1.1" id="Layer_1" xmlns="http://www.w3.org/2000/svg" xmlns:xlink="http://www.w3.org/1999/xlink" x="0px" y="0px"
	 viewBox="0 0 32 32" style="enable-background:new 0 0 32 32;" xml:space="preserve">
<path d="M28,7.1c-0.1-0.1-0.3-0.2-0.5-0.2H15.9c-0.1,0-0.2,0-0.3,0.1l0,0L5.8,17.3l-0.1,0.1l0,0c0,0,0,0.1,0,0.1l-1.8,6.8
	c0,0.2,0,0.4,0.1,0.5s0.3,0.2,0.5,0.2h11.6c0.2,0,0.4-0.1,0.5-0.2l9.5-10.1c0,0,0.1-0.2,0.2-0.3L28,7.9l0.1-0.2
	C28.2,7.5,28.1,7.3,28,7.1z M17.1,18.3l-1.5,5.6H5.2l1.5-5.6H17.1z M26.3,8.1l-8.6,9.1H7.6l8.6-9.1L26.3,8.1L26.3,8.1z"/>
</svg>
